<svg width="11" height="24" viewBox="0 0 11 24" fill="none" xmlns="http://www.w3.org/2000/svg">
<path d="M0 24V21.6255H2.09155C2.69406 21.6255 3.12441 21.4979 3.38263 21.2426C3.65806 21.0043 3.79577 20.5957 3.79577 20.017V8.01702H0.542254V5.71915H3.01815C3.44762 5.71915 3.79577 5.37549 3.79577 4.95157V3.95745C3.79577 2.54468 4.14867 1.53192 4.85446 0.919149C5.56025 0.306383 6.56729 0 7.87559 0H11V2.37447H8.21127C7.60876 2.37447 7.1784 2.49362 6.92019 2.73191C6.66197 2.97021 6.53286 3.38723 6.53286 3.98298V5.71915H11V8.01702H6.53286V20.0426C6.53286 21.4553 6.17997 22.4681 5.47418 23.0808C4.76839 23.6936 3.75274 24 2.42723 24H0Z" fill="#3CEE13"/>
</svg>
