<svg width="134" height="64" viewBox="0 0 134 64" fill="none" xmlns="http://www.w3.org/2000/svg">
<path d="M0 64V57.7149H5.47124C7.04732 57.7149 8.17309 57.377 8.84855 56.7012C9.56904 56.0704 9.92929 54.9891 9.92929 53.4572V21.6938H1.41847V15.6114H7.89513C9.01856 15.6114 9.92929 14.7018 9.92929 13.5797V10.9483C9.92929 7.20873 10.8524 4.52799 12.6987 2.90602C14.5449 1.28406 17.1792 0.473075 20.6016 0.473075H28.7747V6.75818H21.4797C19.9036 6.75818 18.7778 7.07357 18.1024 7.70433C17.4269 8.33509 17.0892 9.43893 17.0892 11.0158V15.6114H28.7747V21.6938H17.0892V53.5248C17.0892 57.2643 16.1661 59.9451 14.3198 61.5671C12.4735 63.189 9.81671 64 6.34934 64H0Z" fill="#3CEE13"/>
<path d="M48.6744 10.4752C47.0983 10.4752 45.7699 9.97959 44.6892 8.98838C43.6535 7.95213 43.1356 6.6906 43.1356 5.2038C43.1356 3.717 43.6535 2.478 44.6892 1.4868C45.7699 0.4956 47.0983 0 48.6744 0C50.2955 0 51.6239 0.4956 52.6596 1.4868C53.7404 2.478 54.2807 3.717 54.2807 5.2038C54.2807 6.6906 53.7404 7.95213 52.6596 8.98838C51.6239 9.97959 50.2955 10.4752 48.6744 10.4752ZM35.2327 49.132V42.9145H45.7699V24.0591C45.7699 22.5723 45.0494 21.8289 43.6084 21.8289H36.1784V15.6114H44.8918C47.6837 15.6114 49.7101 16.2647 50.971 17.5713C52.2769 18.8328 52.9298 20.8603 52.9298 23.6536V40.8827C52.9298 42.0048 53.8405 42.9145 54.964 42.9145H63.467V49.132H35.2327Z" fill="#3CEE13"/>
<path d="M69.1821 49.132V42.7117L87.7573 22.1668H69.4522V15.6114H94.6392C95.7626 15.6114 96.6733 16.521 96.6733 17.6432V22.0317L77.8955 42.5766H97.0111V49.132H69.1821Z" fill="#3CEE13"/>
<path d="M103.199 49.132V0.473075H110.359V29.6684L123.193 15.6114H132.176L118.194 30.4794V31.0201L134 49.132H125.287L113.931 36.0229C112.699 34.5999 110.359 35.4706 110.359 37.3522V49.132H103.199Z" fill="#3CEE13"/>
</svg>
