<svg width="190" height="99" viewBox="0 0 190 99" fill="none" xmlns="http://www.w3.org/2000/svg">
<mask id="mask0_310_7446" style="mask-type:alpha" maskUnits="userSpaceOnUse" x="1" y="1" width="188" height="94">
<path d="M1 95C1 43.0852 43.0852 1 95 1C146.915 1 189 43.0852 189 95H1Z" fill="url(#paint0_radial_310_7446)"/>
</mask>
<g mask="url(#mask0_310_7446)">
<path opacity="0.1" d="M1 95C1 43.0852 43.0852 1 95 1C146.915 1 189 43.0852 189 95H1Z" fill="url(#paint1_angular_310_7446)"/>
<path opacity="0.1" d="M1 95C1 43.0852 43.0852 1 95 1C146.915 1 189 43.0852 189 95H1Z" fill="url(#paint2_angular_310_7446)"/>
</g>
<path d="M189 95C189 43.0852 146.915 1 95 1C43.0852 1 1 43.0852 1 95" stroke="url(#paint3_angular_310_7446)"/>
<path d="M95 3L99 9H91L95 3Z" fill="#EEC613"/>
<path d="M187 95L181 91L181 99L187 95Z" fill="white"/>
<rect x="72.5" y="67.5" width="45" height="20" rx="4" fill="#343434"/>
<path d="M79.664 78.7402V77.6738H85.871V78.7402H79.664ZM92.0162 82.5V76.2246L92.0709 74.502H92.0162L91.2506 75.7324L88.9537 79.1641V79.2188H94.4772V80.2852H87.3815V79.5879L92.1803 72.4238H93.2467V82.5H92.0162ZM99.0365 82.6094C98.599 82.6094 98.1752 82.5296 97.765 82.3701C97.3548 82.2106 96.988 81.9805 96.6644 81.6797C96.3408 81.3743 96.0925 81.0052 95.9193 80.5723L97.013 80.0801C97.127 80.3672 97.2888 80.6156 97.4984 80.8252C97.708 81.0348 97.9473 81.1989 98.2162 81.3174C98.4896 81.4313 98.7767 81.4883 99.0775 81.4883C99.4649 81.4883 99.8067 81.3949 100.103 81.208C100.399 81.0212 100.629 80.766 100.793 80.4424C100.962 80.1188 101.046 79.752 101.046 79.3418C101.046 78.9362 100.96 78.5762 100.786 78.2617C100.618 77.9427 100.383 77.6921 100.082 77.5098C99.7816 77.3275 99.4375 77.2363 99.0502 77.2363C98.8223 77.2363 98.5967 77.2682 98.3734 77.332C98.1501 77.3913 97.9496 77.4779 97.7718 77.5918C97.5987 77.7012 97.4688 77.8333 97.3822 77.9883L96.4388 77.8242V72.4238H101.538V73.5449H97.642V77.2637L97.3412 76.7852C97.4597 76.6393 97.6807 76.4912 98.0043 76.3408C98.3278 76.1904 98.7175 76.1152 99.1732 76.1152C99.7565 76.1152 100.281 76.2565 100.745 76.5391C101.21 76.8171 101.577 77.1999 101.846 77.6875C102.115 78.1706 102.249 78.722 102.249 79.3418C102.249 79.9935 102.104 80.5654 101.812 81.0576C101.52 81.5452 101.131 81.9258 100.643 82.1992C100.16 82.4727 99.6244 82.6094 99.0365 82.6094ZM107.246 82.6094C106.558 82.6094 105.97 82.443 105.483 82.1104C104.995 81.7731 104.621 81.2673 104.361 80.5928C104.106 79.9183 103.979 79.0775 103.979 78.0703V76.8945C103.979 75.8783 104.106 75.0329 104.361 74.3584C104.621 73.6794 104.995 73.1689 105.483 72.8271C105.97 72.4854 106.558 72.3145 107.246 72.3145C107.93 72.3145 108.513 72.4854 108.996 72.8271C109.479 73.1689 109.848 73.6794 110.104 74.3584C110.359 75.0329 110.486 75.8783 110.486 76.8945V78.0703C110.486 79.0775 110.359 79.9183 110.104 80.5928C109.848 81.2673 109.479 81.7731 108.996 82.1104C108.513 82.443 107.93 82.6094 107.246 82.6094ZM107.246 81.4883C107.67 81.4883 108.032 81.3675 108.333 81.126C108.634 80.8844 108.862 80.5221 109.017 80.0391C109.176 79.556 109.256 78.9499 109.256 78.2207V76.7305C109.256 75.9967 109.176 75.3861 109.017 74.8984C108.862 74.4108 108.634 74.0462 108.333 73.8047C108.032 73.5586 107.67 73.4355 107.246 73.4355C106.818 73.4355 106.451 73.5563 106.146 73.7979C105.845 74.0394 105.612 74.404 105.448 74.8916C105.289 75.3792 105.209 75.9922 105.209 76.7305V78.2207C105.209 78.9408 105.289 79.5446 105.448 80.0322C105.608 80.5153 105.838 80.8799 106.139 81.126C106.444 81.3675 106.813 81.4883 107.246 81.4883ZM105.031 80.0801L104.512 79.1641L109.447 74.8438L109.94 75.7461L105.031 80.0801Z" fill="#FFD966"/>
<path d="M83.85 55.1562C82.9581 55.1562 82.1475 54.9707 81.4184 54.5996C80.6957 54.2285 80.1195 53.7272 79.6898 53.0957C79.2602 52.4577 79.0453 51.7448 79.0453 50.957C79.0453 50.1693 79.2602 49.4629 79.6898 48.8379C80.1195 48.2064 80.6957 47.7083 81.4184 47.3438C82.1475 46.9792 82.9581 46.7969 83.85 46.7969C84.7549 46.7969 85.5688 46.9792 86.2914 47.3438C87.0206 47.7083 87.5967 48.2064 88.0199 48.8379C88.4431 49.4629 88.6547 50.1693 88.6547 50.957C88.6547 51.7448 88.4431 52.4577 88.0199 53.0957C87.5967 53.7272 87.0206 54.2285 86.2914 54.5996C85.5688 54.9707 84.7549 55.1562 83.85 55.1562ZM83.85 53.5547C84.4099 53.5547 84.921 53.4408 85.3832 53.2129C85.852 52.985 86.223 52.6725 86.4965 52.2754C86.7764 51.8783 86.9164 51.4258 86.9164 50.918C86.9164 50.4167 86.7797 49.9609 86.5063 49.5508C86.2393 49.1406 85.8747 48.8151 85.4125 48.5742C84.9503 48.3268 84.4294 48.2031 83.85 48.2031C83.2771 48.2031 82.7595 48.3268 82.2973 48.5742C81.835 48.8151 81.4672 49.1439 81.1938 49.5605C80.9203 49.9707 80.7836 50.4297 80.7836 50.9375C80.7836 51.4518 80.9236 51.9076 81.2035 52.3047C81.4835 52.6953 81.8546 53.0013 82.3168 53.2227C82.7855 53.444 83.2966 53.5547 83.85 53.5547ZM83.8305 47.9297C83.1013 47.9297 82.4307 47.7637 81.8188 47.4316C81.2068 47.0931 80.7152 46.6406 80.3441 46.0742C79.973 45.5013 79.7875 44.8633 79.7875 44.1602C79.7875 43.4701 79.9665 42.8451 80.3246 42.2852C80.6827 41.7253 81.1677 41.2826 81.7797 40.957C82.3917 40.625 83.0818 40.4557 83.85 40.4492C84.6182 40.4427 85.3051 40.6055 85.9105 40.9375C86.5225 41.263 87.0043 41.709 87.3559 42.2754C87.7139 42.8418 87.893 43.4766 87.893 44.1797C87.893 44.9219 87.7042 45.5762 87.3266 46.1426C86.949 46.7025 86.4509 47.1419 85.8324 47.4609C85.2139 47.7734 84.5466 47.9297 83.8305 47.9297ZM83.85 46.6016C84.2927 46.6016 84.6964 46.4974 85.0609 46.2891C85.4255 46.0742 85.7152 45.7878 85.9301 45.4297C86.1449 45.0716 86.2523 44.6745 86.2523 44.2383C86.2523 43.8086 86.1417 43.431 85.9203 43.1055C85.7055 42.7734 85.4158 42.5163 85.0512 42.334C84.6866 42.1452 84.2862 42.0508 83.85 42.0508C83.4203 42.0508 83.0232 42.1452 82.6586 42.334C82.294 42.5163 82.001 42.7734 81.7797 43.1055C81.5583 43.431 81.4477 43.8086 81.4477 44.2383C81.4477 44.6484 81.5551 45.0326 81.7699 45.3906C81.9848 45.7487 82.2745 46.0417 82.6391 46.2695C83.0036 46.4909 83.4073 46.6016 83.85 46.6016ZM95.5195 55.1562C94.5365 55.1562 93.6966 54.9186 93 54.4434C92.3034 53.9616 91.7695 53.2389 91.3984 52.2754C91.0339 51.3118 90.8516 50.1107 90.8516 48.6719V46.9922C90.8516 45.5404 91.0339 44.3327 91.3984 43.3691C91.7695 42.3991 92.3034 41.6699 93 41.1816C93.6966 40.6934 94.5365 40.4492 95.5195 40.4492C96.4961 40.4492 97.3294 40.6934 98.0195 41.1816C98.7096 41.6699 99.237 42.3991 99.6016 43.3691C99.9661 44.3327 100.148 45.5404 100.148 46.9922V48.6719C100.148 50.1107 99.9661 51.3118 99.6016 52.2754C99.237 53.2389 98.7096 53.9616 98.0195 54.4434C97.3294 54.9186 96.4961 55.1562 95.5195 55.1562ZM95.5195 53.5547C96.125 53.5547 96.6426 53.3822 97.0723 53.0371C97.502 52.6921 97.8275 52.1745 98.0488 51.4844C98.2767 50.7943 98.3906 49.9284 98.3906 48.8867V46.7578C98.3906 45.7096 98.2767 44.8372 98.0488 44.1406C97.8275 43.444 97.502 42.9232 97.0723 42.5781C96.6426 42.2266 96.125 42.0508 95.5195 42.0508C94.9076 42.0508 94.3835 42.2233 93.9473 42.5684C93.5176 42.9134 93.1855 43.4342 92.9512 44.1309C92.7233 44.8275 92.6094 45.7031 92.6094 46.7578V48.8867C92.6094 49.9154 92.7233 50.778 92.9512 51.4746C93.179 52.1647 93.5078 52.6855 93.9375 53.0371C94.3737 53.3822 94.901 53.5547 95.5195 53.5547ZM92.3555 51.543L91.6133 50.2344L98.6641 44.0625L99.3672 45.3516L92.3555 51.543ZM107.17 55.1562C106.186 55.1562 105.347 54.9186 104.65 54.4434C103.953 53.9616 103.42 53.2389 103.048 52.2754C102.684 51.3118 102.502 50.1107 102.502 48.6719V46.9922C102.502 45.5404 102.684 44.3327 103.048 43.3691C103.42 42.3991 103.953 41.6699 104.65 41.1816C105.347 40.6934 106.186 40.4492 107.17 40.4492C108.146 40.4492 108.979 40.6934 109.67 41.1816C110.36 41.6699 110.887 42.3991 111.252 43.3691C111.616 44.3327 111.798 45.5404 111.798 46.9922V48.6719C111.798 50.1107 111.616 51.3118 111.252 52.2754C110.887 53.2389 110.36 53.9616 109.67 54.4434C108.979 54.9186 108.146 55.1562 107.17 55.1562ZM107.17 53.5547C107.775 53.5547 108.293 53.3822 108.722 53.0371C109.152 52.6921 109.477 52.1745 109.699 51.4844C109.927 50.7943 110.041 49.9284 110.041 48.8867V46.7578C110.041 45.7096 109.927 44.8372 109.699 44.1406C109.477 43.444 109.152 42.9232 108.722 42.5781C108.293 42.2266 107.775 42.0508 107.17 42.0508C106.558 42.0508 106.033 42.2233 105.597 42.5684C105.168 42.9134 104.836 43.4342 104.601 44.1309C104.373 44.8275 104.259 45.7031 104.259 46.7578V48.8867C104.259 49.9154 104.373 50.778 104.601 51.4746C104.829 52.1647 105.158 52.6855 105.587 53.0371C106.024 53.3822 106.551 53.5547 107.17 53.5547ZM104.005 51.543L103.263 50.2344L110.314 44.0625L111.017 45.3516L104.005 51.543Z" fill="white"/>
<defs>
<radialGradient id="paint0_radial_310_7446" cx="0" cy="0" r="1" gradientUnits="userSpaceOnUse" gradientTransform="translate(95 95) scale(94)">
<stop offset="0.424909" stop-color="#181818" stop-opacity="0"/>
<stop offset="1" stop-color="#181818"/>
</radialGradient>
<radialGradient id="paint1_angular_310_7446" cx="0" cy="0" r="1" gradientUnits="userSpaceOnUse" gradientTransform="translate(95 95) scale(94)">
<stop stop-color="#3CEE13"/>
<stop offset="0.5" stop-color="#EE133C"/>
<stop offset="0.75" stop-color="#EEC613"/>
</radialGradient>
<radialGradient id="paint2_angular_310_7446" cx="0" cy="0" r="1" gradientUnits="userSpaceOnUse" gradientTransform="translate(95 95) scale(94)">
<stop stop-color="#3CEE13"/>
<stop offset="0.5" stop-color="#EE133C"/>
<stop offset="0.75" stop-color="#EEC613"/>
</radialGradient>
<radialGradient id="paint3_angular_310_7446" cx="0" cy="0" r="1" gradientUnits="userSpaceOnUse" gradientTransform="translate(95 95) scale(94)">
<stop stop-color="#3CEE13"/>
<stop offset="0.562562" stop-color="#EE133C"/>
<stop offset="0.75" stop-color="#EEC613"/>
</radialGradient>
</defs>
</svg>
