<svg width="12" height="11" viewBox="0 0 12 11" fill="none" xmlns="http://www.w3.org/2000/svg">
<path d="M6 10.0909C6.17045 10.0909 6.28409 10.0341 6.39773 9.97727C6.51136 9.86364 6.56818 9.75 6.56818 9.57955L6.68182 8.89773C6.22727 9.01136 5.77273 9.01136 5.31818 8.89773L5.43182 9.57955C5.43182 9.75 5.48864 9.86364 5.60227 9.97727C5.71591 10.0341 5.82955 10.0909 6 10.0909ZM9.92045 9.97727H11V3.78409C11 2.93182 10.6023 2.36364 9.92045 2.13636V9.97727ZM1 9.97727H2.07955V2.13636C1.39773 2.36364 1 2.93182 1 3.78409V9.97727ZM6.68182 8.89773C7.36364 8.72727 7.875 8.21591 7.98864 7.30682L8.67046 2.07955C7.875 2.25 7.47727 2.875 7.30682 3.84091L6.68182 8.89773ZM5.31818 8.89773L4.69318 3.84091C4.57955 2.875 4.125 2.25 3.38636 2.07955L4.06818 7.30682C4.18182 8.21591 4.63636 8.72727 5.31818 8.89773ZM9.92045 2.13636V1.68182C9.92045 1.22727 9.69318 1 9.35227 1C9.01136 1 8.78409 1.22727 8.72727 1.625L8.67046 2.07955C9.06818 2.02273 9.52273 2.02273 9.92045 2.13636ZM2.07955 2.13636C2.30682 2.07955 2.59091 2.02273 2.81818 2.02273C2.98864 2.02273 3.15909 2.02273 3.38636 2.07955L3.32955 1.625C3.21591 1.17045 2.98864 1 2.64773 1C2.30682 1 2.07955 1.22727 2.07955 1.68182V2.13636Z" fill="#2D2D2D"/>
<path d="M6.68182 8.89773L6.56818 9.57955C6.56818 9.75 6.51136 9.86364 6.39773 9.97727C6.28409 10.0341 6.17046 10.0909 6 10.0909C5.82955 10.0909 5.71591 10.0341 5.60227 9.97727C5.48864 9.86364 5.43182 9.75 5.43182 9.57955L5.31818 8.89773M6.68182 8.89773C6.22727 9.01136 5.77273 9.01136 5.31818 8.89773M6.68182 8.89773C7.36364 8.72727 7.875 8.21591 7.98864 7.30682L8.67046 2.07955M6.68182 8.89773L7.30682 3.84091C7.47727 2.875 7.875 2.25 8.67046 2.07955M5.31818 8.89773L4.69318 3.84091C4.57955 2.875 4.125 2.25 3.38636 2.07955M5.31818 8.89773C4.63636 8.72727 4.18182 8.21591 4.06818 7.30682L3.38636 2.07955M9.92046 2.13636C10.6023 2.36364 11 2.93182 11 3.78409V9.97727H9.92046V2.13636ZM9.92046 2.13636V1.68182C9.92046 1.22727 9.69318 1 9.35227 1C9.01136 1 8.78409 1.22727 8.72727 1.625L8.67046 2.07955M9.92046 2.13636C9.52273 2.02273 9.06818 2.02273 8.67046 2.07955M2.07955 2.13636V9.97727H1V3.78409C1 2.93182 1.39773 2.36364 2.07955 2.13636ZM2.07955 2.13636C2.30682 2.07955 2.59091 2.02273 2.81818 2.02273C2.98864 2.02273 3.15909 2.02273 3.38636 2.07955M2.07955 2.13636V1.68182C2.07955 1.22727 2.30682 1 2.64773 1C2.98864 1 3.21591 1.17045 3.32955 1.625L3.38636 2.07955" stroke="white" stroke-width="0.8" stroke-miterlimit="5.3333"/>
</svg>
