<svg width="74" height="20" viewBox="0 0 74 20" fill="none" xmlns="http://www.w3.org/2000/svg">
<path d="M0 19.794L0.0205973 19.6087L5.91143 10.2987H2.59526L2.65705 9.74253H6.24099L11.9464 0.762101H7.27085C4.96395 0.762101 4.05767 0.885685 3.8105 1.25644C3.58393 1.5448 3.39856 2.34809 2.88363 5.95263L2.45108 5.91143L3.25438 0.205973H14.0474L14.0062 0.391349L8.07415 9.74253H11.5551L11.4933 10.2987H7.74459L2.08033 19.2379H7.92997C10.2369 19.2379 11.1432 19.1143 11.4315 18.7436C11.6375 18.4552 11.8023 17.6519 12.3172 14.0474L12.7703 14.0886L11.967 19.794H0Z" fill="white"/>
<path d="M12.2155 19.794L12.2567 19.3409C13.6985 19.3409 14.2752 19.2585 14.5018 19.0937C14.8108 18.8465 15.0167 17.9609 15.3669 15.5922L16.9323 4.32544C17.2824 1.95674 17.3236 1.11225 17.0765 0.865088C16.9117 0.700309 16.3556 0.659114 14.9137 0.659114L14.9755 0.205973H21.6285L21.5667 0.659114C20.1455 0.659114 19.5481 0.741503 19.3216 0.906282C19.0126 1.15345 18.8272 2.03913 18.4977 4.40783L17.4472 11.9053L24.6357 3.68692C26.2835 1.79197 26.9014 1.11225 26.6336 0.865088C26.4482 0.700309 25.8303 0.659114 24.2855 0.659114L24.3473 0.205973H30.4853L30.4235 0.659114C28.8787 0.659114 28.2402 0.741503 27.9724 0.906282C27.6635 1.15345 26.922 1.83316 25.233 3.72812L20.8458 8.67147L24.4709 16.1689C25.4596 18.1668 25.9539 18.8877 26.1599 19.1349C26.3453 19.2997 26.9014 19.3409 28.3226 19.3409L28.2814 19.794H21.4431L21.4843 19.3409C22.8643 19.3409 23.441 19.2585 23.6676 19.0937C23.956 18.8465 23.647 18.1256 22.6377 16.1277L19.6511 10.0309L17.3442 12.6468L16.9117 15.6746C16.5821 18.0433 16.5203 18.8877 16.7263 19.1349C16.9323 19.2997 17.4678 19.3409 18.8478 19.3409L18.8066 19.794H12.2155Z" fill="white"/>
<path d="M37.5166 19.0113C40.153 19.0113 42.1098 16.931 42.6041 13.4501L43.8811 4.34603C44.2313 1.93615 44.2725 1.07106 44.0665 0.865088C43.8605 0.679712 43.2838 0.659114 41.9038 0.659114L41.9656 0.205973H47.6711L47.6093 0.659114C46.2086 0.659114 45.6113 0.762101 45.3642 0.968074C45.0552 1.19464 44.8492 2.10093 44.4991 4.51081L43.2426 13.553C42.6453 17.7343 40.1118 20 36.3013 20C32.1201 20 29.8956 17.6519 30.4517 13.6766L31.7493 4.34603C32.0995 1.93615 32.1407 1.07106 31.9347 0.865088C31.7287 0.679712 31.1314 0.659114 29.7514 0.659114L29.8132 0.205973H38.979L38.9172 0.659114C37.5578 0.659114 36.9604 0.762101 36.7133 0.968074C36.4043 1.19464 36.1983 2.10093 35.8482 4.51081L34.3858 14.9331C33.9944 17.6725 35.3127 19.0113 37.5166 19.0113Z" fill="white"/>
<path d="M53.507 0C56.1847 0 56.988 1.75077 57.3381 1.75077C57.5029 1.75077 57.6059 1.33883 57.7707 0.123584L58.265 0.205973L57.5235 5.47889L57.0291 5.3965C57.4823 2.26571 56.0199 0.53553 53.5482 0.53553C51.4679 0.53553 50.232 1.68898 50.0055 3.39856C49.7789 4.98455 50.5616 6.138 53.4864 7.25026C56.8438 8.38311 58.3062 10.7724 57.853 13.9238C57.3381 17.4253 54.5575 20 50.438 20C47.1424 20 45.6594 17.7137 45.2063 17.7137C44.9179 17.7137 44.7531 18.4964 44.5472 19.8764L44.094 19.794L45.0415 12.9969L45.5358 13.0793C44.9385 17.2606 47.5338 19.4439 50.3968 19.4439C53.0539 19.4439 54.5987 18.0639 54.8664 16.0659C55.1548 14.1298 54.3515 12.688 50.9941 11.3697C47.6986 10.0927 46.5863 8.07415 46.9571 5.3759C47.4308 2.01854 50.2526 0 53.507 0Z" fill="white"/>
<path d="M56.683 19.794L56.7242 19.3409C58.0836 19.3409 58.6604 19.2379 58.9281 19.0319C59.2165 18.8054 59.4225 17.8991 59.752 15.4892L61.3174 4.34603C61.6676 1.93615 61.7294 1.07106 61.5028 0.865088C61.2968 0.679712 60.7407 0.659114 59.3813 0.659114L59.4431 0.205973H67.2288C72.1722 0.205973 74.2113 3.74871 73.3257 10.1133C72.44 16.4367 69.4328 19.794 64.4894 19.794H56.683ZM62.9858 19.2379H64.5512C66.9199 19.2379 68.5265 16.3543 69.4328 9.94851C70.339 3.48095 69.5357 0.762101 67.1671 0.762101H65.5811L62.9858 19.2379Z" fill="white"/>
</svg>
